<svg xmlns="http://www.w3.org/2000/svg" width="77" height="77" viewBox="0 0 77 77">
  <defs>
    <style>
      .cls-1 {
        fill: #ffbf1d;
        fill-rule: evenodd;
      }
    </style>
  </defs>
  <path id="icon_1" data-name="icon 1" class="cls-1" d="M266.388,1191.76a2.82,2.82,0,1,0,2.829,2.82A2.831,2.831,0,0,0,266.388,1191.76Zm0,4.05a1.23,1.23,0,1,1,1.234-1.23A1.232,1.232,0,0,1,266.388,1195.81Zm-10.349-3.3a0.845,0.845,0,1,0,.852.85A0.851,0.851,0,0,0,256.039,1192.51Zm-17.2,17.89a0.845,0.845,0,1,0,.851.85A0.851,0.851,0,0,0,238.835,1210.4Zm-10.49,6.05a0.845,0.845,0,1,0,.852.84A0.849,0.849,0,0,0,228.345,1216.45Zm45.526-6.86c0.254,0.36-.254-0.35,0,0h0Zm0,0a0.81,0.81,0,0,0-1.112-.19,18.035,18.035,0,0,1-2.449,1.36,0.778,0.778,0,0,0-.41.19c-1.38.63-2.859,1.21-3.888,1.57a172.165,172.165,0,0,1-20.865,5.77,142.351,142.351,0,0,1-21.388,3.03,0.8,0.8,0,0,0-.753.84,0.79,0.79,0,0,0,.795.75h0.044c1.657-.09,3.39-0.23,5.178-0.41,0.016,0.03,10.129,13.2,10.129,13.2a0.808,0.808,0,0,0,1.4-.27s4.527-15.49,4.561-15.5l3.464,14.8a0.8,0.8,0,0,0,1.35.37l4.166-4.28,5.81,1.97a0.8,0.8,0,0,0,1.034-.93l-3.451-14.74,10.823,11.69a0.8,0.8,0,0,0,1.38-.46l1.488-16.24a18.8,18.8,0,0,0,2.5-1.41A0.8,0.8,0,0,0,273.871,1209.59Zm-34.413,23.89-8.59-11.19c3.957-.46,8.154-1.14,12.412-1.99Zm19.6-2.66-4.928-1.67a0.8,0.8,0,0,0-.83.2l-3.5,3.6-3.126-13.36c3.091-.67,6.189-1.43,9.225-2.26Zm9.207-4.4-9.235-9.98c2.583-.76,5.1-1.57,7.513-2.42,0.723-.25,1.812-0.67,2.964-1.16Zm4.168-22.24a0.8,0.8,0,0,0-.859-0.73,21.06,21.06,0,0,1-5.738-.57,163.417,163.417,0,0,1-40.179-13.79,0.8,0.8,0,0,0-1.076.34,0.791,0.791,0,0,0,.34,1.07c1.427,0.74,2.93,1.48,4.494,2.2l-6.1,13.54a0.8,0.8,0,0,0,.847,1.11l5.919-.89,3.422,5.08a0.806,0.806,0,0,0,1.39-.12l6.262-13.9c0.2,0.07.4,0.14,0.6,0.22,0.067,1.09,1.229,16.45,1.229,16.45a0.8,0.8,0,0,0,1.381.48l11.564-12.47c0.248,0.06.5,0.13,0.743,0.19l-1.861,10.4a0.8,0.8,0,1,0,1.57.28l1.84-10.28c2.485,0.63,4.932,1.19,7.3,1.65,0.664,0.13,1.323.26,1.979,0.36l-0.83,4.11a0.8,0.8,0,0,0,1.564.32l0.853-4.23c0.516,0.05,1.032.08,1.548,0.08,0.353,0,.707-0.01,1.061-0.04A0.8,0.8,0,0,0,272.432,1204.18Zm-38.406,5.28-2.9-4.31a0.818,0.818,0,0,0-.781-0.34l-4.973.75,5.5-12.2c2.785,1.25,5.742,2.46,8.792,3.6Zm10.41,2.8-1.1-13.96c3.579,1.25,7.241,2.4,10.867,3.42Zm-8.157-14.5a0.8,0.8,0,0,0-.906-0.67l-3.722.55a0.794,0.794,0,0,0,.115,1.58,0.475,0.475,0,0,0,.118-0.01l3.722-.54A0.8,0.8,0,0,0,236.279,1197.76Zm-1.3,3.24a0.8,0.8,0,0,0-.905-0.67l-3.723.55a0.794,0.794,0,0,0,.116,1.58,0.467,0.467,0,0,0,.117-0.01l3.723-.54A0.8,0.8,0,0,0,234.977,1201Zm18.607,19.01a0.787,0.787,0,0,0-1.12.13l-2.338,2.94a0.785,0.785,0,0,0,.129,1.11,0.768,0.768,0,0,0,.5.17,0.788,0.788,0,0,0,.625-0.3l2.339-2.94A0.785,0.785,0,0,0,253.584,1220.01Zm1.276,3.25a0.8,0.8,0,0,0-1.12.13l-2.339,2.94a0.786,0.786,0,0,0,.13,1.11,0.768,0.768,0,0,0,.5.17,0.788,0.788,0,0,0,.625-0.3l2.339-2.93A0.8,0.8,0,0,0,254.86,1223.26ZM210,1174h2v12h-2v-12Zm12,0v2H210v-2h12Zm65,77h-2v-12h2v12Zm-12,0v-2h12v2H275Zm12-77h-2v12h2v-12Zm-12,0v2h12v-2H275Zm-65,77h2v-12h-2v12Zm12,0v-2H210v2h12Z" transform="translate(-210 -1174)"/>
</svg>
