<svg xmlns="http://www.w3.org/2000/svg" width="74" height="74" viewBox="0 0 74 74">
  <defs>
    <style>
      .cls-1 {
        fill: #ffde8f;
        fill-rule: evenodd;
      }
    </style>
  </defs>
  <path id="icon" class="cls-1" d="M512.791,4313.7a1.239,1.239,0,0,0,.557-1.66,1.224,1.224,0,0,0-1.653-.55c-1.258.62-1.895,1.41-1.895,2.34,0,4.7,18.492,4.94,22.2,4.94s22.2-.24,22.2-4.94c0-.95-0.671-1.76-2-2.39a1.23,1.23,0,1,0-1.062,2.22c0.14,0.07.251,0.13,0.338,0.18-1.583.96-8.158,2.46-19.479,2.46s-17.9-1.5-19.481-2.46C512.593,4313.8,512.682,4313.75,512.791,4313.7Zm26.609-17.13v16.65a1.234,1.234,0,0,0,2.467,0v-16.65A1.234,1.234,0,1,0,539.4,4296.57Zm-4.935,18.5a0.432,0.432,0,0,0,.113-0.01,1.231,1.231,0,0,0,1.117-1.34c-1.15-12.64,3.008-26.1,4.937-28.11,1.862,1.99,6.086,15.41,4.941,26.87a1.233,1.233,0,1,0,2.454.24c1.1-11.03-2.665-25.53-5.615-28.79a2.169,2.169,0,0,0-3.539-.02c-3,3.29-6.724,18.06-5.635,30.04A1.232,1.232,0,0,0,534.465,4315.07Zm-9.865-1.85v-16.65a1.234,1.234,0,1,0-2.467,0v16.65A1.234,1.234,0,0,0,524.6,4313.22Zm32.067-26.52a1.23,1.23,0,1,0-1.234-1.23A1.231,1.231,0,0,0,556.667,4286.7Zm-4.683,16.67a1.23,1.23,0,1,0-.5,2.41c9.141,1.88,15.047,5.04,15.047,8.05,0,4.67-14.182,9.87-34.533,9.87s-34.533-5.2-34.533-9.87c0-3.01,5.906-6.17,15.048-8.05a1.231,1.231,0,1,0-.5-2.41C501.2,4305.59,495,4309.41,495,4313.83c0,8.01,19.064,12.34,37,12.34s37-4.33,37-12.34C569,4309.41,562.8,4305.59,551.984,4303.37Zm0.983,22.8a1.232,1.232,0,0,0-1.234,1.23v22.82c-1.509,1.03-7.285,4.31-19.733,4.31-12.321,0-18.194-3.29-19.733-4.32V4333.3c2.936,1.54,9.224,3.97,19.733,3.97a48.264,48.264,0,0,0,16.455-2.54,1.234,1.234,0,0,0-.843-2.32A45.86,45.86,0,0,1,532,4334.8c-11.951,0-18.1-3.31-19.733-4.35v-3.05a1.234,1.234,0,0,0-2.467,0v23.43a1.223,1.223,0,0,0,.422.93c0.245,0.22,6.18,5.24,21.778,5.24,15.78,0,21.554-5.04,21.792-5.25a1.233,1.233,0,0,0,.408-0.92V4327.4A1.232,1.232,0,0,0,552.967,4326.17Zm-35.644-12.34a1.233,1.233,0,0,0,1.1-1.35c-1.146-11.46,3.078-24.88,4.941-26.87,1.929,2.01,6.086,15.47,4.937,28.11a1.231,1.231,0,0,0,1.117,1.34,0.432,0.432,0,0,0,.113.01,1.232,1.232,0,0,0,1.227-1.12c1.089-11.98-2.631-26.75-5.635-30.04a2.169,2.169,0,0,0-3.539.02c-2.95,3.26-6.719,17.76-5.615,28.79A1.237,1.237,0,0,0,517.323,4313.83Zm-9.99-18.5a1.23,1.23,0,1,0-1.233-1.23A1.234,1.234,0,0,0,507.333,4295.33Zm-11.1-7.4h1.234v1.24a1.233,1.233,0,0,0,2.466,0v-1.24h1.233a1.23,1.23,0,1,0,0-2.46h-1.233v-1.23a1.233,1.233,0,1,0-2.466,0v1.23h-1.234A1.23,1.23,0,1,0,496.233,4287.93Z" transform="translate(-495 -4283)"/>
</svg>
