<svg xmlns="http://www.w3.org/2000/svg" width="77" height="77" viewBox="0 0 77 77">
  <defs>
    <style>
      .cls-1 {
        fill: #ffbf1d;
        fill-rule: evenodd;
      }
    </style>
  </defs>
  <path id="icon_4" data-name="icon 4" class="cls-1" d="M406,1398h2v12h-2v-12Zm12,0v2H406v-2h12Zm65,77h-2v-12h2v12Zm-12,0v-2h12v2H471Zm12-77h-2v12h2v-12Zm-12,0v2h12v-2H471Zm-65,77h2v-12h-2v12Zm12,0v-2H406v2h12Zm35.1-39.27a0.9,0.9,0,0,0-.9.89v8.83a0.9,0.9,0,0,0,1.8,0v-8.83A0.9,0.9,0,0,0,453.1,1435.73Zm-7.2-22.08a0.9,0.9,0,0,0,.9-0.89v-0.88a0.9,0.9,0,0,0-1.8,0v0.88A0.9,0.9,0,0,0,445.9,1413.65Zm-15.3,19.43v15.9a0.9,0.9,0,0,0,.9.89h26.992a0.9,0.9,0,0,0,.9-0.89v-15.9a0.893,0.893,0,0,0-.9-0.88H431.5A0.894,0.894,0,0,0,430.6,1433.08Zm1.8,0.89h25.192v14.13H432.4v-14.13Zm38.052-17.05a0.873,0.873,0,0,0,.636-0.26l0.636-.62a0.872,0.872,0,0,0,0-1.25,0.9,0.9,0,0,0-1.272,0l-0.636.62A0.885,0.885,0,0,0,470.453,1416.92Zm-2.963,2.91a0.919,0.919,0,0,0,.637-0.26l0.636-.62a0.874,0.874,0,0,0,0-1.25,0.9,0.9,0,0,0-1.273,0l-0.636.62a0.872,0.872,0,0,0,0,1.25A0.918,0.918,0,0,0,467.49,1419.83Zm-19.794,15.9a0.9,0.9,0,0,0-.9.89v8.83a0.9,0.9,0,0,0,1.8,0v-8.83A0.9,0.9,0,0,0,447.7,1435.73Zm8.41-16.82a0.955,0.955,0,0,0,.285.05,0.9,0.9,0,0,0,.852-0.61l0.607-1.78a0.886,0.886,0,0,0-.569-1.12,0.9,0.9,0,0,0-1.137.56l-0.606,1.78A0.877,0.877,0,0,0,456.106,1418.91ZM442.3,1435.73a0.9,0.9,0,0,0-.9.89v8.83a0.9,0.9,0,0,0,1.8,0v-8.83A0.9,0.9,0,0,0,442.3,1435.73Zm15.626-22.17a0.935,0.935,0,0,0,.285.04,0.9,0.9,0,0,0,.853-0.6l0.284-.84a0.885,0.885,0,0,0-.568-1.12,0.909,0.909,0,0,0-1.138.56l-0.285.84A0.886,0.886,0,0,0,457.924,1413.56ZM436.9,1435.73a0.9,0.9,0,0,0-.9.89v8.83a0.9,0.9,0,0,0,1.8,0v-8.83A0.9,0.9,0,0,0,436.9,1435.73Zm17.71-12.41a0.949,0.949,0,0,0,.284.05,0.9,0.9,0,0,0,.853-0.61l0.285-.84a0.872,0.872,0,0,0-.568-1.11,0.9,0.9,0,0,0-1.138.55l-0.285.84A0.878,0.878,0,0,0,454.61,1423.32Zm-18.849-1.4,0.286,0.84a0.9,0.9,0,0,0,.853.61,0.949,0.949,0,0,0,.284-0.05,0.879,0.879,0,0,0,.569-1.12l-0.285-.84a0.9,0.9,0,0,0-1.138-.55A0.873,0.873,0,0,0,435.761,1421.92Zm2.938,35.02a0.887,0.887,0,0,0-.9.88v5.3a0.9,0.9,0,0,0,1.8,0v-5.3A0.887,0.887,0,0,0,438.7,1456.94Zm9-3.54H429.7a2.68,2.68,0,0,1-2.7-2.65v-19.43a2.68,2.68,0,0,1,2.7-2.65H453.1a0.885,0.885,0,1,0,0-1.77H429.7a4.463,4.463,0,0,0-4.5,4.42v19.43a4.463,4.463,0,0,0,4.5,4.42H447.7A0.885,0.885,0,1,0,447.7,1453.4Zm16.2-15.9a0.893,0.893,0,0,0-.9.88v12.37a2.679,2.679,0,0,1-2.7,2.65h-9a0.9,0.9,0,0,0-.9.89v8.83a0.9,0.9,0,0,0,1.8,0v-7.95h8.1a4.463,4.463,0,0,0,4.5-4.42v-12.37A0.893,0.893,0,0,0,463.892,1437.5ZM426.1,1423.37a0.918,0.918,0,0,0,.636-0.26,0.872,0.872,0,0,0,0-1.25l-0.636-.63a0.922,0.922,0,0,0-1.273,0,0.874,0.874,0,0,0,0,1.25l0.637,0.63A0.915,0.915,0,0,0,426.1,1423.37Zm45.271,3.57-4.971-1.62-1.659-4.88a0.9,0.9,0,0,0-1.706,0l-1.658,4.88-4.971,1.62a0.881,0.881,0,0,0,0,1.68l4.971,1.63,1.658,4.88a0.906,0.906,0,0,0,1.706,0l1.659-4.88,4.971-1.63A0.881,0.881,0,0,0,471.374,1426.94Zm-5.967,1.77a0.9,0.9,0,0,0-.569.56l-0.946,2.79-0.947-2.79a0.9,0.9,0,0,0-.569-0.56l-2.837-.93,2.837-.93a0.859,0.859,0,0,0,.569-0.56l0.947-2.78,0.946,2.78a0.859,0.859,0,0,0,.569.56l2.837,0.93Zm-42.86-10.97a0.921,0.921,0,0,0-1.272,0,0.872,0.872,0,0,0,0,1.25l1.185,1.16a0.908,0.908,0,0,0,1.272,0,0.86,0.86,0,0,0,0-1.24Zm11.4-1.17,0.606,1.78a0.9,0.9,0,0,0,.853.61,0.955,0.955,0,0,0,.285-0.05,0.877,0.877,0,0,0,.568-1.12l-0.606-1.78a0.907,0.907,0,0,0-1.137-.56A0.885,0.885,0,0,0,433.944,1416.57Zm11.953,6.8a0.9,0.9,0,0,0,.9-0.89v-0.88a0.9,0.9,0,0,0-1.8,0v0.88A0.9,0.9,0,0,0,445.9,1423.37ZM432.732,1413a0.9,0.9,0,0,0,.853.6,0.935,0.935,0,0,0,.285-0.04,0.887,0.887,0,0,0,.569-1.12l-0.285-.84a0.911,0.911,0,0,0-1.138-.56,0.885,0.885,0,0,0-.568,1.12Zm13.165,5.95a0.9,0.9,0,0,0,.9-0.89v-1.76a0.9,0.9,0,0,0-1.8,0v1.76A0.9,0.9,0,0,0,445.9,1418.95Zm-26.356-4.16a0.9,0.9,0,0,0-1.272,0,0.872,0.872,0,0,0,0,1.25l0.636,0.62a0.892,0.892,0,0,0,1.272-1.25Z" transform="translate(-406 -1398)"/>
</svg>
