<svg xmlns="http://www.w3.org/2000/svg" width="77" height="77" viewBox="0 0 77 77">
  <defs>
    <style>
      .cls-1 {
        fill: #fab91e;
        fill-rule: evenodd;
      }
    </style>
  </defs>
  <path id="icon_3" data-name="icon 3" class="cls-1" d="M991,1174h2v12h-2v-12Zm12,0v2H991v-2h12Zm65,77h-2v-12h2v12Zm-12,0v-2h12v2h-12Zm12-77h-2v12h2v-12Zm-12,0v2h12v-2h-12Zm-65,77h2v-12h-2v12Zm12,0v-2H991v2h12Zm30.3-40.53h-2.82a1.718,1.718,0,0,1-1.72-1.71v-0.69a2.164,2.164,0,0,0-2.16-2.16H1016a2.155,2.155,0,0,0-2.15,2.16v0.69a1.724,1.724,0,0,1-1.72,1.71h-2.82a3.952,3.952,0,0,0-3.95,3.95v3.37a0.845,0.845,0,1,0,1.69,0v-3.37a2.264,2.264,0,0,1,2.26-2.26h2.82a3.412,3.412,0,0,0,3.41-3.4v-0.69a0.467,0.467,0,0,1,.46-0.47h10.6a0.469,0.469,0,0,1,.47.47v0.69a3.412,3.412,0,0,0,3.41,3.4h2.82a2.262,2.262,0,0,1,2.25,2.26v15.48a2.256,2.256,0,0,1-2.25,2.26h-23.99a2.258,2.258,0,0,1-2.26-2.26v-6.98a0.845,0.845,0,0,0-1.69,0v6.98a3.952,3.952,0,0,0,3.95,3.95h23.99a3.95,3.95,0,0,0,3.94-3.95v-15.48A3.95,3.95,0,0,0,1033.3,1210.47Zm-12,3.7a7.585,7.585,0,1,0,7.59,7.59A7.6,7.6,0,0,0,1021.3,1214.17Zm0,13.48a5.9,5.9,0,1,1,5.9-5.89A5.9,5.9,0,0,1,1021.3,1227.65Zm11.15-13.24a0.905,0.905,0,1,0,.9.9A0.9,0.9,0,0,0,1032.45,1214.41Zm10.75-25.26h-25.7a0.839,0.839,0,0,0-.84.84v12.75a0.841,0.841,0,0,0,.84.85,0.849,0.849,0,0,0,.85-0.85v-11.9h24v7.17a0.845,0.845,0,1,0,1.69,0v-8.02A0.845,0.845,0,0,0,1043.2,1189.15Zm-3.66,3.59h-18.47a0.839,0.839,0,0,0-.84.84v9.39a0.845,0.845,0,0,0,1.69,0v-8.55h16.78v2.54a0.832,0.832,0,0,0,.84.84,0.841,0.841,0,0,0,.85-0.84v-3.38A0.841,0.841,0,0,0,1039.54,1192.74Zm16.47,13.21-23.97-9.27a0.846,0.846,0,0,0-1.09.48l-2.36,6.09a0.847,0.847,0,0,0,1.58.61l2.05-5.3,22.39,8.66-8.67,22.38-6.14-2.38a0.847,0.847,0,0,0-.61,1.58l6.93,2.68a1.059,1.059,0,0,0,.31.05,0.836,0.836,0,0,0,.78-0.54l9.28-23.95A0.846,0.846,0,0,0,1056.01,1205.95Zm-4.24,2.47a0.846,0.846,0,0,0-.47-0.44l-17.22-6.67a0.887,0.887,0,0,0-.66.02,0.9,0.9,0,0,0-.44.48l-2.17,6.01a0.846,0.846,0,1,0,1.59.58l1.88-5.2,15.62,6.05-4.69,12.13-5.65-2.19a0.847,0.847,0,0,0-.61,1.58l6.43,2.49a0.866,0.866,0,0,0,1.1-.49l5.31-13.7A0.861,0.861,0,0,0,1051.77,1208.42Z" transform="translate(-991 -1174)"/>
</svg>
