<svg xmlns="http://www.w3.org/2000/svg" width="75" height="75" viewBox="0 0 75 75">
  <defs>
    <style>
      .cls-1 {
        fill: #ffde8f;
        fill-rule: evenodd;
      }
    </style>
  </defs>
  <path id="icon" class="cls-1" d="M1123.25,4299.5a1.25,1.25,0,0,0,1.25-1.25V4284.5h8.23l-1.61,1.62a1.237,1.237,0,0,0,0,1.76l1.61,1.62h-4.48a1.25,1.25,0,0,0,0,2.5h7.5a1.255,1.255,0,0,0,1.15-.77,1.226,1.226,0,0,0-.27-1.36l-2.86-2.87,2.86-2.87a1.226,1.226,0,0,0,.27-1.36,1.24,1.24,0,0,0-1.15-.77h-12.5a1.25,1.25,0,0,0-1.25,1.25v15A1.25,1.25,0,0,0,1123.25,4299.5Zm38.74,56.07a125.148,125.148,0,0,0-7.43-26.55c-4.54-10.88-10.22-18.59-16.79-22.92a1.535,1.535,0,0,0-.29-0.21,23.6,23.6,0,0,0-25.96,0,1.61,1.61,0,0,0-.3.21c-6.56,4.33-12.25,12.04-16.78,22.92a125.148,125.148,0,0,0-7.43,26.55,1.259,1.259,0,0,0,1.24,1.43h12.5a1.25,1.25,0,0,0,0-2.5h-11.02c0.19-1.12.52-2.85,1-5h14.07c-0.13,1.51-.21,3.03-0.25,4.56-0.03.57-.05,1.14-0.05,1.69a1.25,1.25,0,0,0,2.5,0c0-11.45,6.98-28.75,17.5-28.75s17.5,17.3,17.5,28.75a1.25,1.25,0,0,0,2.5,0c0-.55-0.02-1.12-0.05-1.69-0.04-1.53-.12-3.05-0.25-4.56h14.07c0.48,2.15.81,3.88,1,5h-11.02a1.25,1.25,0,0,0,0,2.5h12.5A1.259,1.259,0,0,0,1161.99,4355.57Zm-37.49-51.07a20.843,20.843,0,0,1,9.13,2.11,35.205,35.205,0,0,0-9.13,4.36,35.205,35.205,0,0,0-9.13-4.36A20.843,20.843,0,0,1,1124.5,4304.5Zm-19.45,42.5h-13.74c2.76-11.37,9.01-30.51,21-38.65a33.577,33.577,0,0,1,10.04,4.17,40.8,40.8,0,0,0-10.54,12.63A61.073,61.073,0,0,0,1105.05,4347Zm19.45-22.5c-5.81,0-10.62,4.2-14.06,9.97,2.74-8.05,7.27-15.45,14.06-20.49,6.79,5.04,11.32,12.44,14.06,20.49C1135.12,4328.7,1130.31,4324.5,1124.5,4324.5Zm19.45,22.5a61.073,61.073,0,0,0-6.76-21.85,40.8,40.8,0,0,0-10.54-12.63,33.577,33.577,0,0,1,10.04-4.17c11.99,8.14,18.24,27.28,21,38.65h-13.74Z" transform="translate(-1087 -4282)"/>
</svg>
