<svg xmlns="http://www.w3.org/2000/svg" width="77" height="77" viewBox="0 0 77 77">
  <defs>
    <style>
      .cls-1 {
        fill: #ffbf1d;
        fill-rule: evenodd;
      }
    </style>
  </defs>
  <path id="icon_2" data-name="icon 2" class="cls-1" d="M663.3,1216.8v-8.21a22.507,22.507,0,0,0-5.392-14.6,22.832,22.832,0,0,0-12.376-7.45,3.35,3.35,0,0,0,.031-0.44,3.1,3.1,0,0,0-3.1-3.1,3.171,3.171,0,0,0-1.961.68,3.111,3.111,0,0,0-5.052,2.42,3.56,3.56,0,0,0,.027.44,22.823,22.823,0,0,0-12.374,7.45,22.511,22.511,0,0,0-5.39,14.6v8.17L615,1236h3v2h2v-2h5l-2.455-19.24v-2.84c9.275-6.37,13.894-12.45,16.141-16.46a27.235,27.235,0,0,0,1.815-3.91,27.235,27.235,0,0,0,1.815,3.91c2.246,4.01,6.865,10.09,16.139,16.45v2.85L656,1236h6v2h2v-2h2ZM619,1214h2v2h-2v-2Zm4.206,20.03h-6.143l2.385-16.31h1.359Zm13.8-37.32c-2.172,3.83-6.653,9.67-15.666,15.82h-1.8v-3.94a20.789,20.789,0,0,1,16.669-20.35,24.939,24.939,0,0,0,3.084,3.03A22.913,22.913,0,0,1,637.008,1196.71Zm3.493-6.88-0.089-.01a17.454,17.454,0,0,1-2.923-2.95l-0.009-.02a1.422,1.422,0,0,1-.2-0.75,1.255,1.255,0,0,1,1.26-1.28,1.823,1.823,0,0,1,1.331.73l0.635,0.59,0.629-.6a1.864,1.864,0,0,1,1.323-.72,1.258,1.258,0,0,1,1.266,1.28,1.571,1.571,0,0,1-.2.75l-0.016.03a16.648,16.648,0,0,1-2.913,2.94Zm3.493,6.88a22.913,22.913,0,0,1-2.288-5.44,24.483,24.483,0,0,0,3.087-3.03,20.788,20.788,0,0,1,16.669,20.35v3.94h-1.8C650.647,1206.38,646.166,1200.54,643.994,1196.71ZM662,1214v2h-2v-2h2Zm-4.191,20.03,2.385-16.31h1.358l2.4,16.31h-6.143Zm-13.772-10.38L644,1223h7v-2H629v2h7a3.829,3.829,0,0,0,3,4v10h-3l-0.025,2.01L640,1239l4.026,0.01L644,1237h-3v-10C642.505,1226.6,644.037,1225.27,644.037,1223.65ZM640,1225c-0.937,0-2-.07-2-1v-1h4v1C642,1224.93,640.937,1225,640,1225Zm-38-51h2v12h-2v-12Zm12,0v2H602v-2h12Zm65,77h-2v-12h2v12Zm-12,0v-2h12v2H667Zm12-77h-2v12h2v-12Zm-12,0v2h12v-2H667Zm-65,77h2v-12h-2v12Zm12,0v-2H602v2h12Z" transform="translate(-602 -1174)"/>
</svg>
