<svg xmlns="http://www.w3.org/2000/svg" width="77" height="77" viewBox="0 0 77 77">
  <defs>
    <style>
      .cls-1 {
        fill: #fab91e;
        fill-rule: evenodd;
      }
    </style>
  </defs>
  <path id="icon_5" data-name="icon 5" class="cls-1" d="M797,1398h2v12h-2v-12Zm12,0v2H797v-2h12Zm65,77h-2v-12h2v12Zm-12,0v-2h12v2H862Zm12-77h-2v12h2v-12Zm-12,0v2h12v-2H862Zm-65,77h2v-12h-2v12Zm12,0v-2H797v2h12Zm42.992-60.45a4.444,4.444,0,0,1,2.687,2.69,0.887,0.887,0,0,0,.831.59,1.015,1.015,0,0,0,.3-0.05,0.889,0.889,0,0,0,.537-1.13,6.164,6.164,0,0,0-3.76-3.77A0.886,0.886,0,0,0,851.992,1414.55Zm-8.083,24.38a0.945,0.945,0,0,0,.846,0c10.052-5.49,15.475-14.51,15.475-20.22a9.716,9.716,0,0,0-18.526-4.1,0.884,0.884,0,1,0,1.6.75,7.949,7.949,0,0,1,15.158,3.35c0,5.19-5.275,13.43-14.131,18.43-8.856-5-14.132-13.24-14.132-18.43a7.959,7.959,0,0,1,11.132-7.29,0.875,0.875,0,0,0,1.163-.45,0.891,0.891,0,0,0-.455-1.17,9.721,9.721,0,0,0-13.606,8.91C828.434,1424.42,833.858,1433.44,843.909,1438.93Zm-23.424,3.64h7.066c1.029,0,2.782,1.31,4.327,2.47,1.938,1.46,3.768,2.83,5.388,2.83h5.3a3.122,3.122,0,0,1,2.025.62,0.88,0.88,0,0,0,1.249,0,0.872,0.872,0,0,0,0-1.24,4.663,4.663,0,0,0-3.274-1.15h-5.3c-1.031,0-2.782-1.31-4.328-2.47-1.938-1.46-3.768-2.83-5.387-2.83h-7.066A0.885,0.885,0,0,0,820.485,1442.57Zm-7.066,13.69a1.325,1.325,0,1,0-1.325,1.33A1.322,1.322,0,0,0,813.419,1456.26Zm48.1-10.16a3.515,3.515,0,0,0-2.146-1.64,3.449,3.449,0,0,0-2.626.32l-10.165,4.95c-1.58.79-3.175,0.79-6.67,0.79a67.578,67.578,0,0,1-8.688-.87,0.882,0.882,0,1,0-.29,1.74,67.2,67.2,0,0,0,8.977.9c3.668,0,5.508,0,7.452-.98l10.213-4.97a1.768,1.768,0,0,1,2.589,1.99,1.823,1.823,0,0,1-.848,1.09l-11.941,7.43c-0.026.02-2.573,1.62-8.348,1.62-5.007,0-12.742-4.26-12.853-4.32a13.585,13.585,0,0,0-5.694-.98,0.885,0.885,0,0,0,0,1.77,12.567,12.567,0,0,1,4.87.77c0.334,0.19,8.212,4.53,13.677,4.53,6.376,0,9.2-1.84,9.3-1.9l11.9-7.41A3.534,3.534,0,0,0,861.523,1446.1Zm-46.337-8.83h-5.3a0.88,0.88,0,1,0,0,1.76h5.3a0.889,0.889,0,0,1,.883.89v19.44a0.886,0.886,0,0,1-.883.88h-5.3a0.885,0.885,0,0,0,0,1.77h5.3a2.654,2.654,0,0,0,2.649-2.65v-19.44A2.654,2.654,0,0,0,815.186,1437.27Z" transform="translate(-797 -1398)"/>
</svg>
